<?xml version="1.0" encoding="UTF-8"?>
<svg id="_レイヤー_2" data-name="レイヤー 2" xmlns="http://www.w3.org/2000/svg" viewBox="0 0 715.05 493.52">
  <defs>
    <style>
      .cls-1 {
        fill: #c15162;
        stroke-width: 0px;
      }
    </style>
  </defs>
  <g id="_レイヤー_1-2" data-name="レイヤー 1">
    <path class="cls-1" d="M184.23,385.98h5.66v41.65c0,10.85-7.11,15.9-15.06,15.9s-14.75-5.58-15.21-14.45h5.58c.53,5.73,4.59,9.33,9.86,9.33,6.19,0,9.17-3.37,9.17-13.22v-39.21Z"/>
    <path class="cls-1" d="M201.82,442.53v-56.56h5.66v56.56h-5.66Z"/>
    <path class="cls-1" d="M272.06,442.53v-50.36h-.16l-21.17,50.36h-4.81l-21.02-50.36h-.15v50.36h-5.66v-56.56h8.72l20.55,48.15,20.64-48.15h8.71v56.56h-5.65Z"/>
    <path class="cls-1" d="M370.99,442.53v-56.56h17.12c15.59,0,20.25,9.25,20.25,17.04s-4.89,16.74-20.33,16.74h-11.39v22.78h-5.66ZM389.26,414.64c7.87,0,13.45-4.74,13.45-11.77,0-5.66-3.6-11.77-14.67-11.77h-11.39v23.54h12.61Z"/>
    <path class="cls-1" d="M512.71,442.53l-19.18-25.6h5.5c10.01,0,15.97-5.12,15.97-12.84,0-5.35-3.28-13-16.27-13h-10.78v51.44h-5.65v-56.56h17.04c14.75,0,21.32,8.71,21.32,18.26s-6.88,16.44-16.81,17.2l15.97,21.09h-7.11Z"/>
    <path class="cls-1" d="M536.79,442.53v-51.44h-12.99v-5.12h31.56v5.12h-12.92v51.44h-5.65Z"/>
    <path class="cls-1" d="M295.97,492.95v-15.16h-16.73v15.16h-3.23v-32.33h3.23v14.24h16.73v-14.24h3.23v32.33h-3.23Z"/>
    <path class="cls-1" d="M313.79,492.95v-10.79l-11.23-21.54h3.58l9.22,18.13,9.48-18.13h3.54l-11.36,21.54v10.79h-3.23Z"/>
    <path class="cls-1" d="M347.33,493.52c-8.83,0-17.08-7.16-17.08-16.56s7.6-16.9,17.08-16.9,17.13,7.51,17.13,16.73-7.73,16.73-17.13,16.73ZM347.29,462.98c-7.64,0-13.8,6.47-13.8,13.98s6.33,13.63,13.85,13.63,13.89-6.34,13.89-13.76-6.16-13.85-13.93-13.85Z"/>
    <path class="cls-1" d="M380.57,481.03v-2.92h21.93c-.7,8.69-8.08,15.42-17.08,15.42s-17.35-7.08-17.35-16.73,7.82-16.73,17.3-16.73c7.25,0,13.41,4.63,15.29,9.17h-3.75c-2.23-3.8-6.86-6.25-11.49-6.25-7.6,0-14.11,6.12-14.11,13.85s6.55,13.76,14.24,13.76c5.85,0,11.58-3.98,13.06-9.57h-18.04Z"/>
    <path class="cls-1" d="M423.38,493.52c-8.83,0-17.08-7.16-17.08-16.56s7.6-16.9,17.08-16.9,17.13,7.51,17.13,16.73-7.73,16.73-17.13,16.73ZM423.34,462.98c-7.64,0-13.8,6.47-13.8,13.98s6.33,13.63,13.85,13.63,13.89-6.34,13.89-13.76-6.16-13.85-13.93-13.85Z"/>
    <path class="cls-1" d="M316.71,385.98c-14.84,0-26.75,11.9-26.75,26.48,0,7.51,3.39,14.07,8.53,18.74-.74,3.34-3.58,5.9-7.14,5.9v5.11c5.22,0,9.7-3.2,11.6-7.75,4.13,2.46,8.88,3.92,13.76,3.92,14.71,0,26.81-11.9,26.81-26.2s-12.11-26.2-26.81-26.2ZM316.71,433.8c-11.77,0-21.69-9.92-21.69-21.34s9.65-21.89,21.62-21.89,21.82,9.98,21.82,21.68-9.65,21.55-21.75,21.55Z"/>
    <path class="cls-1" d="M443.69,385.98c-14.84,0-26.75,11.9-26.75,26.48,0,7.5,3.39,14.07,8.52,18.73-.74,3.34-3.58,5.9-7.14,5.9v5.11c5.22,0,9.7-3.2,11.6-7.75,4.13,2.47,8.88,3.93,13.77,3.93,14.71,0,26.81-11.9,26.81-26.2s-12.11-26.2-26.81-26.2ZM443.69,433.8c-11.77,0-21.69-9.92-21.69-21.34s9.65-21.89,21.62-21.89,21.82,9.98,21.82,21.68-9.65,21.55-21.75,21.55Z"/>
    <g>
      <path class="cls-1" d="M167.4,293.79c-69.69,0-126.39-56.7-126.39-126.39s56.7-126.39,126.39-126.39c54.86,0,101.54,45.86,124.67,69v-16.01c-26.14-25.46-71.12-64.38-124.67-64.38-75.97,0-137.77,61.81-137.77,137.77s61.8,137.77,137.77,137.77c53.55,0,98.53-38.91,124.67-64.37v-16.01c-23.13,23.14-69.81,69-124.67,69Z"/>
      <path class="cls-1" d="M421.87,111.12c22.74-22.76,70.07-70.1,125.78-70.1,69.69,0,126.39,56.7,126.39,126.39s-56.7,126.39-126.39,126.39c-55.72,0-103.04-47.35-125.78-70.11l-3.92-3.92v16.09c25.13,24.98,72.55,69.32,129.7,69.32,75.97,0,137.77-61.8,137.77-137.77s-61.8-137.77-137.77-137.77c-57.16,0-104.57,44.35-129.7,69.32v16.09l3.92-3.92Z"/>
      <g>
        <path class="cls-1" d="M355.01,132.88c-14.2,0-27.72,4.33-39.14,12.29v14.63c10.67-10.01,24.47-15.54,39.14-15.54s28.48,5.54,39.15,15.54v-14.63c-11.42-7.96-24.94-12.29-39.15-12.29Z"/>
        <path class="cls-1" d="M355.01,172.79c-14.2,0-27.72,4.33-39.14,12.29v14.63c10.67-10.01,24.47-15.54,39.14-15.54s28.48,5.54,39.15,15.54v-14.63c-11.42-7.96-24.94-12.29-39.15-12.29Z"/>
      </g>
    </g>
    <g>
      <path class="cls-1" d="M547.64,269.85c56.49,0,102.45-45.96,102.45-102.45s-45.96-102.45-102.45-102.45c-45.8,0-88.39,42.62-108.86,63.1l-20.84,20.84v8.05l24.87-24.87c19.93-19.94,61.39-61.43,104.83-61.43,53.35,0,96.76,43.4,96.76,96.76s-43.4,96.76-96.76,96.76c-43.44,0-84.9-41.49-104.83-61.44l-24.87-24.86v8.05l20.85,20.85c20.47,20.48,63.06,63.1,108.85,63.1Z"/>
      <path class="cls-1" d="M262.07,296.76c-31.79,21.47-63.64,32.35-94.67,32.35-89.17,0-161.71-72.54-161.71-161.71S78.24,5.69,167.4,5.69c31.03,0,62.88,10.88,94.66,32.35,11.13,7.52,21.18,15.63,30.01,23.38v-7.55c-8.05-6.87-17.02-13.92-26.82-20.54C232.51,11.21,199.59,0,167.4,0,75.1,0,0,75.1,0,167.4s75.1,167.4,167.4,167.4c32.18,0,65.1-11.21,97.85-33.33,9.8-6.62,18.77-13.68,26.82-20.54v-7.55c-8.83,7.74-18.87,15.85-30,23.37Z"/>
      <path class="cls-1" d="M167.4,64.96c-56.49,0-102.45,45.96-102.45,102.45s45.96,102.45,102.45,102.45c45.81,0,88.39-42.62,108.86-63.1l15.81-15.81v-8.05l-19.84,19.83c-19.93,19.94-61.39,61.44-104.83,61.44-53.35,0-96.76-43.4-96.76-96.76s43.4-96.76,96.76-96.76c43.44,0,84.9,41.49,104.83,61.43l19.84,19.83v-8.05l-15.81-15.81c-20.47-20.48-63.06-63.1-108.86-63.1Z"/>
      <path class="cls-1" d="M547.64,0c-32.18,0-65.1,11.21-97.85,33.32-11.9,8.04-22.58,16.73-31.85,24.93v7.65c9.94-9.03,21.73-18.87,35.03-27.85,31.8-21.47,63.65-32.35,94.67-32.35,89.17,0,161.71,72.54,161.71,161.71s-72.55,161.71-161.71,161.71c-31.02,0-62.88-10.89-94.66-32.35-13.32-8.99-25.1-18.83-35.04-27.85v7.65c9.26,8.19,19.94,16.88,31.85,24.92,32.75,22.11,65.68,33.33,97.85,33.33,92.31,0,167.4-75.1,167.4-167.4S639.95,0,547.64,0Z"/>
      <g>
        <polygon class="cls-1" points="310.17 66.99 310.17 191.49 310.17 198.64 310.17 267.82 315.86 267.82 315.86 201.67 315.86 187.04 315.86 66.99 310.17 66.99"/>
        <polygon class="cls-1" points="394.15 66.99 394.15 187.04 394.15 201.67 394.15 267.82 399.84 267.82 399.84 198.64 399.84 191.49 399.84 66.99 394.15 66.99"/>
      </g>
    </g>
  </g>
</svg>